# xmcd
#
# Track frame offsets:
#	150
#	12772
#	26826
#	38574
#	50970
#	62739
#	76242
#	91183
#	105468
#	118658
#	132122
#	144330
#	156311
#	166791
#	179816
#	191815
#	205692
#	218357
#	232277
#	245353
#	259881
#	272663
#	285898
#	298923
#	311304
#
# Disc length: 4326 seconds
#
# Revision: 0
# Processed by: cddbd v1.5.1PL0 Copyright (c) Steve Scherf et al.
# Submitted via: audiograbber 1.81.03
#
DISCID=6410e419
DTITLE=Little Willie Littlefield - Kat On The Keys
DYEAR=1900
DGENRE=Blues
TTITLE0=Ain't A Better Story Told
TTITLE1=Life Of Trouble
TTITLE2=You Never Miss A Good Woman Till She's Gone
TTITLE3=Nakite Stomp (Inst)
TTITLE4=Cheerful Baby
TTITLE5=Happy Pay Day
TTITLE6=I've Been Lost
TTITLE7=Love Me Tonight
TTITLE8=Trouble Around Me
TTITLE9=Money Hustlin' Woman
TTITLE10=Real Fine Mama
TTITLE11=Too Late For Me
TTITLE12=Mean Mean Woman
TTITLE13=Lump In My Throat (Tears In My Eyes)
TTITLE14=I Like It
TTITLE15=Your Love Wasn't So
TTITLE16=Rockin' Chair Mama
TTITLE17=The Nights Are So Long
TTITLE18=Hit The Road
TTITLE19=Train Whistle Blues (aka Train Whistle Blowing)
TTITLE20=The Sun Is Shining In Your Front Door
TTITLE21='Long About Midnight
TTITLE22=Til We Meet Again
TTITLE23=Trouble Around Me
TTITLE24=It's Midnight (No Place To Go)
EXTD=
EXTT0=
EXTT1=
EXTT2=
EXTT3=
EXTT4=
EXTT5=
EXTT6=
EXTT7=
EXTT8=
EXTT9=
EXTT10=
EXTT11=
EXTT12=
EXTT13=
EXTT14=
EXTT15=
EXTT16=
EXTT17=
EXTT18=
EXTT19=
EXTT20=
EXTT21=
EXTT22=
EXTT23=
EXTT24=
PLAYORDER=
